<svg width="90" height="16" viewBox="0 0 90 16" fill="none" xmlns="http://www.w3.org/2000/svg">
<path d="M0.832 15.542C0.776 15.276 0.776 15.017 0.832 14.765H2.029C2.351 14.135 2.631 13.526 2.869 12.938C3.121 12.336 3.366 11.72 3.604 11.09L6.124 4.601C6.264 4.237 6.425 3.824 6.607 3.362C6.789 2.886 6.957 2.389 7.111 1.871C7.279 1.353 7.398 0.855999 7.468 0.379999C7.608 0.351999 7.769 0.337999 7.951 0.337999C8.147 0.323999 8.343 0.323999 8.539 0.337999C8.735 0.337999 8.903 0.351999 9.043 0.379999L7.237 4.202L4.591 11.09C4.353 11.72 4.157 12.336 4.003 12.938C3.863 13.526 3.772 14.135 3.73 14.765H5.536C5.592 15.017 5.592 15.276 5.536 15.542C4.962 15.514 4.43 15.5 3.94 15.5C3.45 15.5 3.086 15.5 2.848 15.5C2.596 15.5 2.316 15.5 2.008 15.5C1.714 15.5 1.322 15.514 0.832 15.542ZM14.314 14.765H15.322C15.378 15.017 15.378 15.276 15.322 15.542C15 15.528 14.706 15.514 14.44 15.5C14.188 15.5 13.915 15.5 13.621 15.5C13.341 15.5 12.998 15.5 12.592 15.5C12.004 15.5 11.451 15.5 10.933 15.5C10.429 15.5 9.939 15.514 9.463 15.542C9.407 15.276 9.407 15.017 9.463 14.765H10.912C10.8 14.135 10.646 13.526 10.45 12.938C10.254 12.336 10.037 11.72 9.799 11.09L7.237 4.202L9.043 0.379999C9.155 1.094 9.323 1.78 9.547 2.438C9.785 3.096 10.072 3.887 10.408 4.811L12.739 11.09C12.977 11.72 13.222 12.336 13.474 12.938C13.74 13.54 14.02 14.149 14.314 14.765ZM10.072 10.607H4.57V9.767H10.072V10.607ZM14.905 1.535H13.96C13.904 1.269 13.904 1.01 13.96 0.758C14.296 0.771999 14.59 0.785999 14.842 0.799999C15.094 0.799999 15.36 0.799999 15.64 0.799999C15.934 0.799999 16.277 0.799999 16.669 0.799999C17.271 0.799999 17.831 0.799999 18.349 0.799999C18.867 0.785999 19.371 0.771999 19.861 0.758C19.917 1.01 19.917 1.269 19.861 1.535H18.412C18.524 2.193 18.671 2.816 18.853 3.404C19.035 3.978 19.238 4.58 19.462 5.21L21.835 11.615L20.113 15.92C20.029 15.458 19.91 14.968 19.756 14.45C19.616 13.932 19.455 13.4 19.273 12.854C19.105 12.308 18.923 11.79 18.727 11.3L16.501 5.21C16.263 4.552 16.018 3.929 15.766 3.341C15.514 2.739 15.227 2.137 14.905 1.535ZM35.884 0.758C35.912 0.855999 35.926 0.981999 35.926 1.136C35.926 1.276 35.912 1.409 35.884 1.535H34.666C34.344 2.193 34.064 2.809 33.826 3.383C33.602 3.957 33.385 4.566 33.175 5.21L31.033 11.699C30.921 12.049 30.788 12.462 30.634 12.938C30.48 13.414 30.34 13.911 30.214 14.429C30.088 14.947 29.983 15.444 29.899 15.92C29.759 15.934 29.591 15.941 29.395 15.941C29.213 15.955 29.031 15.955 28.849 15.941C28.667 15.941 28.499 15.934 28.345 15.92L30.067 11.615L32.167 5.21C32.363 4.622 32.531 4.041 32.671 3.467C32.811 2.893 32.895 2.249 32.923 1.535H31.096C31.082 1.437 31.075 1.304 31.075 1.136C31.075 0.967999 31.082 0.841999 31.096 0.758C31.684 0.771999 32.223 0.785999 32.713 0.799999C33.203 0.799999 33.574 0.799999 33.826 0.799999C34.092 0.799999 34.372 0.799999 34.666 0.799999C34.974 0.785999 35.38 0.771999 35.884 0.758ZM23.263 1.535H22.213C22.199 1.423 22.185 1.297 22.171 1.157C22.171 1.003 22.185 0.87 22.213 0.758C22.549 0.771999 22.85 0.785999 23.116 0.799999C23.382 0.799999 23.655 0.799999 23.935 0.799999C24.215 0.799999 24.544 0.799999 24.922 0.799999C25.51 0.799999 26.063 0.799999 26.581 0.799999C27.113 0.785999 27.624 0.771999 28.114 0.758C28.128 0.855999 28.135 0.974999 28.135 1.115C28.149 1.255 28.142 1.395 28.114 1.535H26.665C26.777 2.123 26.917 2.704 27.085 3.278C27.267 3.852 27.484 4.496 27.736 5.21L30.067 11.615L28.345 15.92C28.219 15.192 28.037 14.464 27.799 13.736C27.575 13.008 27.295 12.196 26.959 11.3L24.754 5.21C24.586 4.706 24.425 4.258 24.271 3.866C24.117 3.46 23.963 3.068 23.809 2.69C23.655 2.312 23.473 1.927 23.263 1.535ZM25.594 3.719L22.801 11.699C22.689 12.007 22.556 12.399 22.402 12.875C22.262 13.337 22.122 13.834 21.982 14.366C21.842 14.898 21.737 15.416 21.667 15.92C21.527 15.934 21.359 15.941 21.163 15.941C20.981 15.955 20.792 15.955 20.596 15.941C20.414 15.941 20.253 15.934 20.113 15.92L21.835 11.615L24.586 3.719H25.594ZM48.4018 15.5C48.2618 15.15 48.1148 14.835 47.9608 14.555C47.8068 14.275 47.6388 13.995 47.4568 13.715C47.2748 13.435 47.0578 13.127 46.8058 12.791L39.5398 2.753L38.9098 0.799999C39.2178 0.799999 39.5538 0.799999 39.9178 0.799999C40.2958 0.799999 40.6528 0.799999 40.9888 0.799999C41.3388 0.785999 41.6328 0.771999 41.8708 0.758C42.0388 1.108 42.2278 1.458 42.4378 1.808C42.6478 2.158 42.9278 2.585 43.2778 3.089L48.9898 10.985L49.9768 15.5C49.7248 15.528 49.4588 15.542 49.1788 15.542C48.9128 15.542 48.6538 15.528 48.4018 15.5ZM36.7048 15.542C36.6488 15.276 36.6488 15.017 36.7048 14.765H38.1118C38.2238 14.135 38.3008 13.526 38.3428 12.938C38.3988 12.336 38.4268 11.72 38.4268 11.09V5.21C38.4268 4.622 38.3988 4.048 38.3428 3.488C38.3008 2.914 38.2238 2.263 38.1118 1.535H36.7048C36.6488 1.269 36.6488 1.01 36.7048 0.758C37.1948 0.771999 37.6218 0.785999 37.9858 0.799999C38.3498 0.799999 38.6578 0.799999 38.9098 0.799999L39.5398 2.753C39.5118 3.117 39.4838 3.509 39.4558 3.929C39.4278 4.335 39.4138 4.762 39.4138 5.21V11.09C39.4138 11.72 39.4348 12.336 39.4768 12.938C39.5328 13.526 39.6168 14.135 39.7288 14.765H41.4508C41.5068 15.017 41.5068 15.276 41.4508 15.542C40.9188 15.514 40.4288 15.5 39.9808 15.5C39.5328 15.5 39.1758 15.5 38.9098 15.5C38.6578 15.5 38.3498 15.5 37.9858 15.5C37.6218 15.5 37.1948 15.514 36.7048 15.542ZM49.9768 15.5L48.9898 10.985V5.21C48.9898 4.58 48.9618 3.992 48.9058 3.446C48.8638 2.9 48.7868 2.263 48.6748 1.535H46.9528C46.8968 1.269 46.8968 1.01 46.9528 0.758C47.4988 0.771999 47.9958 0.785999 48.4438 0.799999C48.8918 0.799999 49.2488 0.799999 49.5148 0.799999C49.7528 0.799999 50.0538 0.799999 50.4178 0.799999C50.7958 0.785999 51.2228 0.771999 51.6988 0.758C51.7548 1.01 51.7548 1.269 51.6988 1.535H50.2918C50.1798 2.263 50.0958 2.9 50.0398 3.446C49.9978 3.992 49.9768 4.58 49.9768 5.21V15.5ZM57.7794 15.815C56.8134 15.815 55.9594 15.626 55.2174 15.248C54.4754 14.87 53.8944 14.303 53.4744 13.547C53.0544 12.791 52.8444 11.867 52.8444 10.775C52.8444 9.697 53.0544 8.787 53.4744 8.045C53.8944 7.289 54.4684 6.715 55.1964 6.323C55.9384 5.931 56.7854 5.735 57.7374 5.735C58.5914 5.735 59.3474 5.896 60.0054 6.218C60.6774 6.54 61.2024 7.051 61.5804 7.751C61.9584 8.451 62.1474 9.361 62.1474 10.481C61.7274 10.411 61.3004 10.362 60.8664 10.334C60.4324 10.306 59.9144 10.292 59.3124 10.292H54.9444V9.557H59.5014C59.5014 8.591 59.3404 7.842 59.0184 7.31C58.7104 6.764 58.2484 6.491 57.6324 6.491C57.1144 6.491 56.6874 6.673 56.3514 7.037C56.0294 7.387 55.7844 7.877 55.6164 8.507C55.4624 9.137 55.3854 9.879 55.3854 10.733C55.3854 11.993 55.6374 12.973 56.1414 13.673C56.6454 14.359 57.3664 14.702 58.3044 14.702C58.8924 14.702 59.4454 14.569 59.9634 14.303C60.4814 14.037 60.9924 13.561 61.4964 12.875C61.6364 12.945 61.7484 13.022 61.8324 13.106C61.9304 13.19 62.0284 13.288 62.1264 13.4C61.5244 14.226 60.8804 14.835 60.1944 15.227C59.5224 15.619 58.7174 15.815 57.7794 15.815ZM67.8451 15.815C67.0331 15.815 66.3961 15.647 65.9341 15.311C65.4721 14.975 65.1081 14.52 64.8421 13.946C64.8841 13.736 64.9051 13.512 64.9051 13.274C64.9191 13.022 64.9261 12.791 64.9261 12.581V9.935C64.9261 8.801 64.8561 7.765 64.7161 6.827H63.7291C63.6731 6.561 63.6731 6.302 63.7291 6.05C64.4151 6.05 65.0661 6.029 65.6821 5.987C66.3121 5.945 66.9561 5.868 67.6141 5.756C67.5301 6.078 67.4671 6.498 67.4251 7.016C67.3831 7.52 67.3481 8.038 67.3201 8.57C67.3061 9.088 67.2991 9.543 67.2991 9.935V12.707C67.2991 13.239 67.4111 13.701 67.6351 14.093C67.8591 14.471 68.2441 14.66 68.7901 14.66C69.2661 14.66 69.6791 14.534 70.0291 14.282C70.3931 14.03 70.7221 13.666 71.0161 13.19L71.2261 14.135C70.8901 14.611 70.4561 15.01 69.9241 15.332C69.3921 15.654 68.6991 15.815 67.8451 15.815ZM79.6471 6.008C79.7031 6.274 79.7031 6.547 79.6471 6.827H78.8071C78.6811 7.429 78.5971 8.01 78.5551 8.57C78.5131 9.13 78.4921 9.76 78.4921 10.46C78.4921 11.132 78.4151 11.79 78.2611 12.434C78.1211 13.078 77.8971 13.652 77.5891 14.156C77.2951 14.66 76.9171 15.066 76.4551 15.374C76.0071 15.668 75.4681 15.815 74.8381 15.815C74.2081 15.815 73.6201 15.759 73.0741 15.647C72.5421 15.549 71.9121 15.5 71.1841 15.5C71.2121 15.262 71.2261 15.031 71.2261 14.807C71.2261 14.583 71.2261 14.359 71.2261 14.135L71.0161 13.19V9.935C71.0161 8.801 70.9461 7.765 70.8061 6.827H69.7771C69.7211 6.561 69.7211 6.302 69.7771 6.05C70.4491 6.05 71.1071 6.029 71.7511 5.987C72.3951 5.945 73.0461 5.868 73.7041 5.756C73.6201 6.078 73.5571 6.498 73.5151 7.016C73.4731 7.52 73.4381 8.038 73.4101 8.57C73.3961 9.088 73.3891 9.543 73.3891 9.935V12.77C73.3891 13.414 73.4731 13.925 73.6411 14.303C73.8091 14.681 74.2081 14.87 74.8381 14.87C75.4121 14.87 75.8951 14.674 76.2871 14.282C76.6791 13.876 76.9801 13.337 77.1901 12.665C77.4001 11.993 77.5051 11.258 77.5051 10.46C77.5051 9.816 77.4141 9.2 77.2321 8.612C77.0641 8.024 76.7701 7.429 76.3501 6.827H75.3631C75.3071 6.547 75.3071 6.274 75.3631 6.008C75.8951 6.022 76.3921 6.036 76.8541 6.05C77.3161 6.05 77.6731 6.05 77.9251 6.05C78.1631 6.05 78.4431 6.05 78.7651 6.05C79.0871 6.036 79.3811 6.022 79.6471 6.008ZM84.8646 15.815C84.2906 15.815 83.6886 15.759 83.0586 15.647C82.4286 15.535 81.8126 15.381 81.2106 15.185V12.182C81.4346 12.14 81.6586 12.14 81.8826 12.182C82.0786 13.036 82.4146 13.715 82.8906 14.219C83.3806 14.723 84.0806 14.975 84.9906 14.975C85.5926 14.975 86.0896 14.856 86.4816 14.618C86.8736 14.38 87.0696 14.023 87.0696 13.547C87.0696 13.169 86.9296 12.875 86.6496 12.665C86.3836 12.441 86.0336 12.266 85.5996 12.14C85.1656 12 84.7036 11.86 84.2136 11.72C83.7376 11.58 83.2826 11.398 82.8486 11.174C82.4146 10.936 82.0576 10.621 81.7776 10.229C81.5116 9.837 81.3786 9.319 81.3786 8.675C81.3786 7.751 81.7216 7.03 82.4076 6.512C83.0936 5.994 84.0526 5.735 85.2846 5.735C85.8586 5.735 86.3976 5.791 86.9016 5.903C87.4196 6.015 87.9026 6.169 88.3506 6.365V9.137C88.1266 9.179 87.9026 9.179 87.6786 9.137C87.5106 8.269 87.2096 7.625 86.7756 7.205C86.3556 6.785 85.8026 6.575 85.1166 6.575C84.5006 6.575 84.0386 6.694 83.7306 6.932C83.4226 7.17 83.2686 7.499 83.2686 7.919C83.2686 8.297 83.4086 8.598 83.6886 8.822C83.9826 9.032 84.3536 9.214 84.8016 9.368C85.2496 9.522 85.7256 9.669 86.2296 9.809C86.7336 9.949 87.2096 10.138 87.6576 10.376C88.1056 10.6 88.4696 10.901 88.7496 11.279C89.0296 11.657 89.1696 12.154 89.1696 12.77C89.1696 13.722 88.7916 14.471 88.0356 15.017C87.2936 15.549 86.2366 15.815 84.8646 15.815Z" fill="#253238"/>
</svg>
