<svg width="214" height="45" viewBox="0 0 214 45" fill="none" xmlns="http://www.w3.org/2000/svg">
<path d="M28.7539 36H17.2109V34.6133C18.2266 34.5482 19.0664 34.418 19.7305 34.2227C20.4076 34.0273 20.7461 33.7865 20.7461 33.5C20.7461 33.3828 20.7331 33.2396 20.707 33.0703C20.681 32.901 20.6419 32.7513 20.5898 32.6211L18.2852 26.4102H8.57812C8.21354 27.3216 7.91406 28.1159 7.67969 28.793C7.45833 29.4701 7.25651 30.0951 7.07422 30.668C6.90495 31.2279 6.78776 31.6836 6.72266 32.0352C6.65755 32.3867 6.625 32.6732 6.625 32.8945C6.625 33.4154 7.03516 33.819 7.85547 34.1055C8.67578 34.3919 9.60026 34.5612 10.6289 34.6133V36H0.199219V34.6133C0.53776 34.5872 0.960938 34.5156 1.46875 34.3984C1.97656 34.2682 2.39323 34.099 2.71875 33.8906C3.23958 33.5391 3.64323 33.1745 3.92969 32.7969C4.21615 32.4062 4.49609 31.8724 4.76953 31.1953C6.16276 27.7188 7.69922 23.8125 9.37891 19.4766C11.0586 15.1406 12.556 11.2799 13.8711 7.89453H15.4336L24.6719 31.8008C24.8672 32.3086 25.0885 32.7188 25.3359 33.0312C25.5833 33.3438 25.9284 33.6497 26.3711 33.9492C26.6706 34.1315 27.0612 34.2878 27.543 34.418C28.0247 34.5352 28.4284 34.6003 28.7539 34.6133V36ZM17.582 24.6719L13.3828 13.9297L9.26172 24.6719H17.582ZM67.4453 9.67188C67.1198 9.6849 66.7422 9.76302 66.3125 9.90625C65.8828 10.0365 65.4857 10.2122 65.1211 10.4336C64.6654 10.7201 64.2943 11.0521 64.0078 11.4297C63.7344 11.7943 63.4935 12.3086 63.2852 12.9727C62.3607 15.9805 61.2865 19.4961 60.0625 23.5195C58.8385 27.5299 57.5169 31.8073 56.0977 36.3516H54.3008L47.3086 15.0234L40.0234 36.3516H38.3047C37.0156 31.7943 35.681 27.0677 34.3008 22.1719C32.9206 17.263 31.9961 13.9753 31.5273 12.3086C31.4102 11.9049 31.2344 11.5469 31 11.2344C30.7786 10.9219 30.4727 10.6354 30.082 10.375C29.7565 10.1536 29.3724 9.99089 28.9297 9.88672C28.5 9.76953 28.1094 9.69792 27.7578 9.67188V8.28516H39.0664V9.67188C38.0768 9.72396 37.2305 9.82161 36.5273 9.96484C35.8372 10.1081 35.4922 10.349 35.4922 10.6875C35.4922 10.8177 35.5117 10.9935 35.5508 11.2148C35.5898 11.4232 35.6224 11.5924 35.6484 11.7227C35.9479 12.8685 36.4753 14.763 37.2305 17.4062C37.9987 20.0365 39.1315 23.9818 40.6289 29.2422L47.543 8.67578H49.457L56.4297 29.6914C57.3672 26.4622 58.1745 23.6432 58.8516 21.2344C59.5286 18.8125 60.0885 16.7422 60.5312 15.0234C60.8438 13.8125 61.0391 12.9857 61.1172 12.543C61.1953 12.0872 61.2344 11.7031 61.2344 11.3906C61.2344 10.9479 60.9284 10.5768 60.3164 10.2773C59.7174 9.97786 58.7409 9.77604 57.3867 9.67188V8.28516H67.4453V9.67188ZM97.2109 9.67188C96.8464 9.6849 96.2865 9.78906 95.5312 9.98438C94.776 10.1797 94.2357 10.3815 93.9102 10.5898C93.4414 10.9154 93.1224 11.5404 92.9531 12.4648C92.7969 13.3893 92.7188 14.5612 92.7188 15.9805V36.2734H91.0195L74.2227 13.5977V27.8945C74.2227 29.4961 74.3203 30.7266 74.5156 31.5859C74.724 32.4453 75.0365 33.0573 75.4531 33.4219C75.7526 33.7083 76.3711 33.9753 77.3086 34.2227C78.2461 34.4701 78.8646 34.6003 79.1641 34.6133V36H67.7969V34.6133C68.1484 34.5872 68.7409 34.4635 69.5742 34.2422C70.4076 34.0078 70.9284 33.7995 71.1367 33.6172C71.5924 33.2526 71.9049 32.6992 72.0742 31.957C72.2435 31.2018 72.3281 29.9193 72.3281 28.1094V14.457C72.3281 13.8581 72.224 13.2591 72.0156 12.6602C71.8073 12.0612 71.5273 11.599 71.1758 11.2734C70.707 10.8438 70.069 10.4792 69.2617 10.1797C68.4674 9.86719 67.8229 9.69792 67.3281 9.67188V8.28516H75.2383L90.8242 29.418V16.2344C90.8242 14.6198 90.7201 13.3828 90.5117 12.5234C90.3034 11.651 90.0039 11.0716 89.6133 10.7852C89.2487 10.5378 88.6497 10.2969 87.8164 10.0625C86.9961 9.82812 86.3711 9.69792 85.9414 9.67188V8.28516H97.2109V9.67188ZM116.078 31.4688C115.271 33.0052 114.19 34.2292 112.836 35.1406C111.482 36.0521 109.926 36.5078 108.168 36.5078C106.618 36.5078 105.258 36.2344 104.086 35.6875C102.927 35.1406 101.97 34.3984 101.215 33.4609C100.46 32.5234 99.8932 31.4297 99.5156 30.1797C99.151 28.9297 98.9688 27.6081 98.9688 26.2148C98.9688 24.9648 99.1641 23.7409 99.5547 22.543C99.9583 21.332 100.544 20.2448 101.312 19.2812C102.055 18.3568 102.973 17.6146 104.066 17.0547C105.173 16.4818 106.41 16.1953 107.777 16.1953C109.184 16.1953 110.388 16.4167 111.391 16.8594C112.393 17.3021 113.207 17.9076 113.832 18.6758C114.431 19.4049 114.874 20.2643 115.16 21.2539C115.46 22.2435 115.609 23.3177 115.609 24.4766V25.7656H102.855C102.855 27.0286 102.973 28.1745 103.207 29.2031C103.454 30.2318 103.839 31.1367 104.359 31.918C104.867 32.6732 105.531 33.2721 106.352 33.7148C107.172 34.1445 108.148 34.3594 109.281 34.3594C110.44 34.3594 111.436 34.0924 112.27 33.5586C113.116 33.0117 113.93 32.0352 114.711 30.6289L116.078 31.4688ZM111.762 24.125C111.762 23.3958 111.697 22.6146 111.566 21.7812C111.449 20.9479 111.254 20.2513 110.98 19.6914C110.681 19.0924 110.271 18.6042 109.75 18.2266C109.229 17.849 108.559 17.6602 107.738 17.6602C106.371 17.6602 105.232 18.2331 104.32 19.3789C103.422 20.5117 102.934 22.0938 102.855 24.125H111.762ZM146.996 17.9922C146.449 18.0443 145.857 18.2721 145.219 18.6758C144.594 19.0794 144.138 19.6849 143.852 20.4922C143.201 22.4062 142.582 24.2227 141.996 25.9414C141.423 27.6471 140.779 29.5677 140.062 31.7031C139.828 32.3802 139.587 33.1094 139.34 33.8906C139.105 34.6719 138.891 35.4206 138.695 36.1367H137.016L131.84 21.957L126.625 36.1367H125.023C124.047 33.2461 123.09 30.3815 122.152 27.543C121.228 24.6914 120.408 22.2109 119.691 20.1016C119.483 19.4896 119.086 19.0078 118.5 18.6562C117.914 18.3047 117.348 18.0964 116.801 18.0312V16.7422H125.395V18.1094C124.965 18.1224 124.496 18.194 123.988 18.3242C123.493 18.4544 123.246 18.6693 123.246 18.9688C123.246 19.0208 123.266 19.1315 123.305 19.3008C123.357 19.4701 123.415 19.6523 123.48 19.8477C123.897 21.2148 124.366 22.7448 124.887 24.4375C125.421 26.1172 126.104 28.3047 126.938 31L131.859 17.1328H133.734L138.754 30.8047C139.314 29.0599 139.867 27.3737 140.414 25.7461C140.974 24.1055 141.462 22.569 141.879 21.1367C141.97 20.7982 142.055 20.4922 142.133 20.2188C142.224 19.9323 142.27 19.6523 142.27 19.3789C142.27 19.1445 142.165 18.9362 141.957 18.7539C141.749 18.5716 141.495 18.4219 141.195 18.3047C140.935 18.2005 140.648 18.1224 140.336 18.0703C140.036 18.0182 139.815 17.9922 139.672 17.9922V16.7422H146.996V17.9922ZM160.512 26.5664C161.046 27.0352 161.456 27.5755 161.742 28.1875C162.029 28.7995 162.172 29.5482 162.172 30.4336C162.172 32.2174 161.501 33.6758 160.16 34.8086C158.832 35.9414 157.107 36.5078 154.984 36.5078C153.865 36.5078 152.829 36.306 151.879 35.9023C150.941 35.4987 150.271 35.1276 149.867 34.7891L149.477 36.0586H148.012L147.816 29.3594H149.164C149.268 29.8672 149.49 30.4596 149.828 31.1367C150.167 31.8138 150.577 32.4258 151.059 32.9727C151.566 33.5456 152.172 34.0273 152.875 34.418C153.591 34.8086 154.392 35.0039 155.277 35.0039C156.527 35.0039 157.491 34.724 158.168 34.1641C158.845 33.5911 159.184 32.7773 159.184 31.7227C159.184 31.1758 159.073 30.707 158.852 30.3164C158.643 29.9128 158.331 29.5612 157.914 29.2617C157.484 28.9622 156.957 28.6953 156.332 28.4609C155.707 28.2135 155.01 27.9727 154.242 27.7383C153.63 27.556 152.947 27.3086 152.191 26.9961C151.449 26.6706 150.811 26.293 150.277 25.8633C149.704 25.4076 149.236 24.8477 148.871 24.1836C148.507 23.5195 148.324 22.7383 148.324 21.8398C148.324 20.2643 148.91 18.9297 150.082 17.8359C151.254 16.7422 152.823 16.1953 154.789 16.1953C155.544 16.1953 156.312 16.293 157.094 16.4883C157.888 16.6836 158.533 16.918 159.027 17.1914L159.477 16.1758H160.883L161.176 22.3672H159.828C159.555 20.987 158.962 19.8672 158.051 19.0078C157.152 18.1354 156.052 17.6992 154.75 17.6992C153.682 17.6992 152.842 17.9661 152.23 18.5C151.618 19.0339 151.312 19.6784 151.312 20.4336C151.312 21.0195 151.41 21.5078 151.605 21.8984C151.814 22.2891 152.12 22.6211 152.523 22.8945C152.914 23.1549 153.402 23.4023 153.988 23.6367C154.587 23.8581 155.323 24.112 156.195 24.3984C157.055 24.6719 157.862 24.9909 158.617 25.3555C159.385 25.7201 160.017 26.1237 160.512 26.5664Z" fill="#253238"/>
</svg>
